<?xml version="1.0" encoding="utf-8"?>
<!-- Generator: Adobe Illustrator 24.0.2, SVG Export Plug-In . SVG Version: 6.00 Build 0)  -->
<svg version="1.1" id="Layer_1" xmlns="http://www.w3.org/2000/svg" xmlns:xlink="http://www.w3.org/1999/xlink" x="0px" y="0px"
	 viewBox="0 0 466 425" style="enable-background:new 0 0 466 425;" xml:space="preserve">
<style type="text/css">
	.st0{fill:none;stroke:#000000;stroke-width:0.5;stroke-linecap:square;stroke-miterlimit:1;}
	.st1{fill:#231F20;stroke:#231F20;stroke-miterlimit:10;}
	.st2{fill:#231F20;}
	.st3{font-family:'Roboto-Light';}
	.st4{font-size:14px;}
	.st5{fill:#77787B;}
</style>
<image style="overflow:visible;enable-background:new    ;" width="937" height="833" xlink:href="99E6CD7FC8EAA2A2.jpg"  transform="matrix(0.5 0 0 0.5 -12.5 6.5)">
</image>
<g>
	<g>
		<g>
			<path class="st0" d="M190.7,268.9c-1.2-6-7-10.1-13.1-9.1"/>
			<g>
				<polygon points="192.3,266.8 191.8,266.5 190.6,268.7 188.6,267.4 188.3,267.8 190.8,269.4 				"/>
			</g>
		</g>
	</g>
	<path class="st1" d="M212.4,104.5c-1.4,0-2.5,1.1-2.5,2.5s1.1,2.5,2.5,2.5s2.5-1.1,2.5-2.5S213.7,104.5,212.4,104.5"/>
	<path class="st1" d="M254.5,248.6c-1.4,0-2.5,1.1-2.5,2.5s1.1,2.5,2.5,2.5s2.5-1.1,2.5-2.5C257,249.7,255.9,248.6,254.5,248.6"/>
	<path class="st1" d="M83.2,346.1c-1.4,0-2.5,1.1-2.5,2.5s1.1,2.5,2.5,2.5s2.5-1.1,2.5-2.5S84.5,346.1,83.2,346.1"/>
	<path class="st1" d="M298.7,129c-1.4,0-2.5,1.1-2.5,2.5s1.1,2.5,2.5,2.5s2.5-1.1,2.5-2.5S300.1,129,298.7,129"/>
	<text transform="matrix(1 0 0 1 217.7814 111.823)" class="st2 st3 st4">Beijing</text>
	<g>
		<text transform="matrix(1 0 0 1 408.7782 155.0259)" class="st5 st3 st4">Tokyo</text>
	</g>
	<text transform="matrix(1 0 0 1 258.3242 135.2849)" class="st5 st3 st4">Seoul</text>
	<text transform="matrix(1 0 0 1 22.9677 352.7959)" class="st5 st3 st4">Bangkok</text>
	<text transform="matrix(1 0 0 1 104.9548 262.6707)" class="st2 st3 st4">Hong Kong</text>
</g>
</svg>
