<?xml version="1.0" encoding="utf-8"?>
<!-- Generator: Adobe Illustrator 24.0.2, SVG Export Plug-In . SVG Version: 6.00 Build 0)  -->
<svg version="1.1" id="Layer_1" xmlns="http://www.w3.org/2000/svg" xmlns:xlink="http://www.w3.org/1999/xlink" x="0px" y="0px"
	 viewBox="0 0 475 789.8" style="enable-background:new 0 0 475 789.8;" xml:space="preserve">
<style type="text/css">
	.st0{fill:#383938;}
	.st1{font-family:'Roboto-Bold';}
	.st2{font-size:16px;}
	.st3{fill:none;stroke:#010101;stroke-width:0.5;stroke-linecap:square;stroke-miterlimit:1;}
	.st4{fill:#010101;}
	.st5{stroke:#000000;stroke-miterlimit:10;}
	.st6{font-family:'Roboto-Black';}
	.st7{fill:#77787B;}
	.st8{font-size:14px;}
	.st9{fill:#231F20;}
	.st10{opacity:0.5;}
</style>
<g id="Layer_6">
	
		<image style="overflow:visible;enable-background:new    ;" width="850" height="1415" xlink:href="airTraffic.jpg"  transform="matrix(0.5589 0 0 0.5589 -4.792007e-02 6.608760e-02)">
	</image>
</g>
<g id="Layer_5">
	<g>
		<g>
			<text transform="matrix(1 0 0 1 129.6713 440.1743)" class="st0 st1 st2">LUNES 12 DE AGOSTO, 11pm</text>
		</g>
	</g>
</g>
<g id="Layer_4">
	<g>
		<g>
			<g>
				<path class="st3" d="M199.8,656.3c-1.2-6.1-7.1-10.3-13.4-9.3"/>
				<g>
					<polygon class="st4" points="201.3,654.2 200.9,653.9 199.7,656.1 197.6,654.7 197.3,655.2 199.9,656.8 					"/>
				</g>
			</g>
		</g>
		<path class="st5" d="M221.8,489.1c-1.4,0-2.5,1.1-2.5,2.5s1.2,2.5,2.5,2.5c1.4,0,2.5-1.1,2.5-2.5S223.2,489.1,221.8,489.1"/>
		<path class="st5" d="M264.6,635.7c-1.4,0-2.5,1.1-2.5,2.5s1.1,2.5,2.5,2.5s2.6-1.1,2.6-2.5S266,635.7,264.6,635.7"/>
		<path class="st5" d="M415.6,533.3c-1.4,0-2.5,1.1-2.5,2.5s1.2,2.5,2.5,2.5c1.4,0,2.6-1.1,2.6-2.5
			C418.2,534.4,417,533.3,415.6,533.3"/>
		<path class="st5" d="M90.3,734.9c-1.4,0-2.5,1.1-2.5,2.5s1.2,2.5,2.5,2.5c1.4,0,2.5-1.1,2.5-2.5S91.7,734.9,90.3,734.9"/>
		<path class="st5" d="M309.6,514c-1.4,0-2.5,1.1-2.5,2.5s1.1,2.5,2.5,2.5s2.6-1.1,2.6-2.5S311,514,309.6,514"/>
		<text transform="matrix(1 0 0 1 229.3274 498.5161)" class="st6 st2">Beijing</text>
		<text transform="matrix(1 0 0 1 34.1873 741.6333)" class="st7 st6 st2">Bangkok</text>
		<g>
			<text transform="matrix(1 0 0 1 420.5842 540.4336)" class="st7 st6 st2">Tokyo</text>
		</g>
		<text transform="matrix(1 0 0 1 115.2314 649.6567)" class="st6 st8">Hong Kong</text>
		<text transform="matrix(1 0 0 1 264.9001 653.7036)" class="st7 st6 st2">Taipei</text>
		<text transform="matrix(1 0 0 1 270.573 520.3501)" class="st7 st6 st2">Seoul</text>
	</g>
</g>
<g id="Layer_3">
	<g>
		<path class="st5" d="M221.8,74.4c-1.4,0-2.5,1.1-2.5,2.5s1.2,2.5,2.5,2.5c1.4,0,2.5-1.1,2.5-2.5S223.2,74.4,221.8,74.4"/>
		<path class="st5" d="M264.6,221c-1.4,0-2.5,1.1-2.5,2.5s1.1,2.5,2.5,2.5s2.6-1.1,2.6-2.5S266,221,264.6,221"/>
		<path class="st5" d="M415.6,118.6c-1.4,0-2.5,1.1-2.5,2.5s1.2,2.5,2.5,2.5c1.4,0,2.6-1.1,2.6-2.5S417,118.6,415.6,118.6"/>
		<path class="st5" d="M90.3,320.2c-1.4,0-2.5,1.1-2.5,2.5s1.2,2.5,2.5,2.5c1.4,0,2.5-1.1,2.5-2.5S91.7,320.2,90.3,320.2"/>
		<path class="st5" d="M309.6,99.3c-1.4,0-2.5,1.1-2.5,2.5s1.1,2.5,2.5,2.5s2.6-1.1,2.6-2.5S311,99.3,309.6,99.3"/>
		<text transform="matrix(1 0 0 1 229.3269 83.8174)" class="st6 st2">Beijing</text>
		<text transform="matrix(1 0 0 1 34.1873 326.9341)" class="st7 st6 st2">Bangkok</text>
		<g>
			<g>
				<path class="st3" d="M195.2,244.5c-2.3-12.8-14.4-21.5-27.4-19.4"/>
				<g>
					<polygon class="st4" points="196.8,242.4 196.4,242.2 195.1,244.3 193.1,242.9 192.8,243.3 195.3,245 					"/>
				</g>
			</g>
		</g>
		<text transform="matrix(1 0 0 1 270.4666 235.8374)" class="st7 st6 st2">Taipei</text>
		<text transform="matrix(1 0 0 1 94.428 225.3213)" class="st9 st6 st8">Hong Kong</text>
		<g>
			<text transform="matrix(1 0 0 1 420.5842 125.7349)" class="st7 st6 st2">Tokyo</text>
		</g>
		<text transform="matrix(1 0 0 1 315.4421 105.1997)" class="st7 st6 st2">Seoul</text>
	</g>
</g>
<g>
	<g class="st10">
		<text transform="matrix(1 0 0 1 131.2612 19.021)" class="st0 st1 st2">LUNES 5 DE AGOSTO, 11pm</text>
	</g>
</g>
</svg>
